<?xml version="1.0" encoding="utf-8"?>
<!-- Generator: Adobe Illustrator 15.0.0, SVG Export Plug-In . SVG Version: 6.00 Build 0)  -->
<!DOCTYPE svg PUBLIC "-//W3C//DTD SVG 1.1//EN" "http://www.w3.org/Graphics/SVG/1.1/DTD/svg11.dtd">
<svg version="1.1" id="Ebene_1" xmlns="http://www.w3.org/2000/svg" xmlns:xlink="http://www.w3.org/1999/xlink" x="0px" y="0px"
	 width="53.575px" height="28.063px" viewBox="0 0 53.575 28.063" enable-background="new 0 0 53.575 28.063" xml:space="preserve">
<g>
	<rect x="38.774" y="2.749" fill="#9D9D9C" width="1.701" height="6.236"/>
	<rect x="35.939" y="2.749" fill="#9D9D9C" width="1.701" height="6.236"/>
	<rect x="33.105" y="2.749" fill="#9D9D9C" width="1.701" height="6.236"/>
	<rect x="30.27" y="2.749" fill="#9D9D9C" width="1.701" height="6.236"/>
	<rect x="27.435" y="2.749" fill="#9D9D9C" width="1.701" height="6.236"/>
	<rect x="24.601" y="2.749" fill="#9D9D9C" width="1.701" height="6.236"/>
	<rect x="21.766" y="2.749" fill="#9D9D9C" width="1.701" height="6.236"/>
	<rect x="18.931" y="2.749" fill="#9D9D9C" width="1.701" height="6.236"/>
	<rect x="16.097" y="2.749" fill="#9D9D9C" width="1.701" height="6.236"/>
	<rect x="13.262" y="2.749" fill="#9D9D9C" width="1.701" height="6.236"/>
	<rect x="44.443" y="8.984" fill="#9D9D9C" width="5.102" height="7.371"/>
	<rect x="4.191" y="8.985" fill="#9D9D9C" width="5.103" height="7.371"/>
	<rect x="5.609" y="8.984" fill="#CBBBA0" width="42.518" height="12.189"/>
	<rect x="2.774" y="21.173" width="48.188" height="3.117"/>
</g>
</svg>
