<?xml version="1.0" encoding="utf-8"?>
<!-- Generator: Adobe Illustrator 15.0.0, SVG Export Plug-In . SVG Version: 6.00 Build 0)  -->
<!DOCTYPE svg PUBLIC "-//W3C//DTD SVG 1.1//EN" "http://www.w3.org/Graphics/SVG/1.1/DTD/svg11.dtd">
<svg version="1.1" id="part" xmlns="http://www.w3.org/2000/svg" xmlns:xlink="http://www.w3.org/1999/xlink" x="0px" y="0px"
	 width="56.689px" height="31.333px" viewBox="0 0 56.689 31.333" enable-background="new 0 0 56.689 31.333" xml:space="preserve">
<g id="silkscreen">
	<text transform="matrix(1 0 0 1 10.97 24.104)" fill="#FFFFFF" font-family="'Courier'" font-size="10">+</text>
	<text transform="matrix(1 0 0 1 39.595 24.104)" fill="#FFFFFF" font-family="'DevanagariMT'" font-size="10">-</text>
	<line fill="none" stroke="#FFFFFF" stroke-miterlimit="10" x1="6.681" y1="10.792" x2="6.682" y2="7.479"/>
	<line fill="none" stroke="#FFFFFF" stroke-miterlimit="10" x1="50.01" y1="10.792" x2="50.01" y2="7.479"/>
	<line fill="none" stroke="#FFFFFF" stroke-miterlimit="10" x1="6.681" y1="10.292" x2="50.01" y2="10.292"/>
	<line fill="none" stroke="#FFFFFF" stroke-miterlimit="10" x1="6.681" y1="12.292" x2="6.682" y2="23.792"/>
	<line fill="none" stroke="#FFFFFF" stroke-miterlimit="10" x1="50.01" y1="12.292" x2="50.01" y2="23.792"/>
	<line fill="none" stroke="#FFFFFF" stroke-miterlimit="10" x1="6.681" y1="12.792" x2="50.01" y2="12.792"/>
</g>
<g id="copper0">
<g id="copper1">
	<circle id="pin8" fill="none" stroke="#F9B334" stroke-width="1.4173" cx="50.01" cy="2.917" r="2.126"/>
	<circle id="pin9" fill="none" stroke="#F9B334" stroke-width="1.4173" cx="42.809" cy="2.917" r="2.126"/>
	<circle id="pin13" fill="none" stroke="#F9B334" stroke-width="1.4173" cx="13.88" cy="2.917" r="2.126"/>
	<circle id="pin14" fill="none" stroke="#F9B334" stroke-width="1.4173" cx="6.681" cy="2.917" r="2.126"/>
	<circle id="pin7" fill="none" stroke="#F9B334" stroke-width="1.4173" cx="50.011" cy="28.425" r="2.126"/>
	<circle id="pin6" fill="none" stroke="#F9B334" stroke-width="1.4173" cx="42.81" cy="28.425" r="2.126"/>
	<circle id="pin2" fill="none" stroke="#F9B334" stroke-width="1.4173" cx="13.881" cy="28.425" r="2.126"/>
	<circle id="pin1" fill="none" stroke="#F9B334" stroke-width="1.4173" cx="6.682" cy="28.425" r="2.126"/>
</g>
</g>
</svg>