<?xml version="1.0" encoding="utf-8"?>
<!-- Generator: Adobe Illustrator 15.0.0, SVG Export Plug-In . SVG Version: 6.00 Build 0)  -->
<!DOCTYPE svg PUBLIC "-//W3C//DTD SVG 1.1//EN" "http://www.w3.org/Graphics/SVG/1.1/DTD/svg11.dtd">
<svg version="1.1" id="Ebene_1" xmlns="http://www.w3.org/2000/svg" xmlns:xlink="http://www.w3.org/1999/xlink" x="0px" y="0px"
	 width="56.69px" height="25.509px" viewBox="0 0 56.69 25.509" enable-background="new 0 0 56.69 25.509" xml:space="preserve">
<g>
	<g>
		<rect x="-0.002" y="2.833" fill="#575756" width="56.691" height="19.841"/>
		<path d="M51.729,19.84H0.708V5.666h51.022V19.84z M0.708,19.84c3.914,0,7.087-3.174,7.087-7.088c0-3.914-3.173-7.086-7.087-7.086"
			/>
		<rect x="-0.002" y="2.833" width="56.693" height="0.708"/>
		<rect x="-0.002" y="21.965" width="56.693" height="0.709"/>
		<rect x="-0.001" y="3.541" width="0.708" height="18.425"/>
		<rect x="55.979" y="3.54" width="0.709" height="18.425"/>
		<rect x="0.707" y="3.541" width="51.022" height="2.125"/>
		<rect x="0.708" y="19.84" width="51.022" height="2.126"/>
		<rect x="51.729" y="3.541" width="4.25" height="18.424"/>
	</g>
	<g>
		<g>
			<rect x="5.97" fill="#575756" width="1.417" height="2.834"/>
			<rect x="13.17" fill="#575756" width="1.418" height="2.834"/>
		</g>
		<g>
			<rect x="42.099" fill="#575756" width="1.418" height="2.834"/>
			<rect x="49.3" fill="#575756" width="1.418" height="2.834"/>
		</g>
	</g>
	<g>
		<g>
			<rect x="5.971" y="22.674" fill="#575756" width="1.417" height="2.835"/>
			<rect x="13.171" y="22.674" fill="#575756" width="1.418" height="2.835"/>
		</g>
		<g>
			<rect x="42.1" y="22.674" fill="#575756" width="1.418" height="2.835"/>
			<rect x="49.301" y="22.674" fill="#575756" width="1.418" height="2.835"/>
		</g>
	</g>
</g>
<text transform="matrix(1 0 0 1 48.9678 5.6655)" fill="#FFFFFF" font-family="'Courier'" font-size="3">8</text>
<text transform="matrix(1 0 0 1 4.2178 5.6655)" fill="#FFFFFF" font-family="'Courier'" font-size="3">14</text>
<text transform="matrix(1 0 0 1 42.0986 5.666)" fill="#FFFFFF" font-family="'Courier'" font-size="3">9</text>
<text transform="matrix(1 0 0 1 11.4678 5.6655)" fill="#FFFFFF" font-family="'Courier'" font-size="3">13</text>
<text transform="matrix(1 0 0 1 5.1372 20.9033)" fill="#FFFFFF" font-family="'Courier'" font-size="3">1</text>
<text transform="matrix(1 0 0 1 13.1704 20.9023)" fill="#FFFFFF" font-family="'Courier'" font-size="3">2</text>
<text transform="matrix(1 0 0 1 42.0986 20.9033)" fill="#FFFFFF" font-family="'Courier'" font-size="3">6</text>
<text transform="matrix(1 0 0 1 48.9678 20.9023)" fill="#FFFFFF" font-family="'Courier'" font-size="3">7</text>
<g>
	<line fill="none" stroke="#FFFFFF" stroke-width="0.25" stroke-miterlimit="10" x1="50.009" y1="7.5" x2="31.917" y2="7.5"/>
	<line fill="none" stroke="#FFFFFF" stroke-width="0.25" stroke-miterlimit="10" x1="24.063" y1="7.5" x2="5.971" y2="7.5"/>
	<line fill="none" stroke="#FFFFFF" stroke-width="0.25" stroke-miterlimit="10" x1="24.063" y1="7.5" x2="31.917" y2="5.666"/>
</g>
<line fill="none" stroke="#FFFFFF" stroke-width="0.25" stroke-miterlimit="10" x1="50.009" y1="7.5" x2="50.01" y2="6.167"/>
<line fill="none" stroke="#FFFFFF" stroke-width="0.25" stroke-miterlimit="10" x1="5.971" y1="7.5" x2="5.972" y2="6.167"/>
<g>
	<line fill="none" stroke="#FFFFFF" stroke-width="0.25" stroke-miterlimit="10" x1="50.009" y1="14.888" x2="31.917" y2="14.888"/>
	<line fill="none" stroke="#FFFFFF" stroke-width="0.25" stroke-miterlimit="10" x1="24.062" y1="14.888" x2="5.971" y2="14.888"/>
	<line fill="none" stroke="#FFFFFF" stroke-width="0.25" stroke-miterlimit="10" x1="24.062" y1="14.888" x2="31.917" y2="13.053"/>
</g>
<line fill="none" stroke="#FFFFFF" stroke-width="0.25" stroke-miterlimit="10" x1="50.01" y1="18.22" x2="50.01" y2="14.888"/>
<line fill="none" stroke="#FFFFFF" stroke-width="0.25" stroke-miterlimit="10" x1="5.972" y1="18.219" x2="5.972" y2="14.889"/>
<text transform="matrix(1 0 0 1 9.0156 12.2539)" fill="#706F6F" font-family="'Courier'" font-size="3">D2A050000</text>
<line fill="none" stroke="#FFFFFF" stroke-width="0.25" stroke-miterlimit="10" x1="13.879" y1="18.104" x2="13.879" y2="16.968"/>
<g>
	<g>
		<g>
			<path fill="none" stroke="#FFFFFF" stroke-width="0.25" stroke-miterlimit="10" d="M25.51,17.084
				c0-0.627,0.508-1.135,1.135-1.135"/>
			<path fill="none" stroke="#FFFFFF" stroke-width="0.25" stroke-miterlimit="10" d="M27.781,18.22
				c0-1.255-0.508-2.271-1.136-2.271"/>
			<path fill="none" stroke="#FFFFFF" stroke-width="0.25" stroke-miterlimit="10" d="M27.781,18.22
				c0,0.313-0.254,0.567-0.568,0.567"/>
			<path fill="none" stroke="#FFFFFF" stroke-width="0.25" stroke-miterlimit="10" d="M26.646,18.22
				c0,0.313,0.254,0.567,0.568,0.567"/>
			<path fill="none" stroke="#FFFFFF" stroke-width="0.25" stroke-miterlimit="10" d="M26.646,18.22
				c0-1.255,0.762-2.271,1.703-2.271"/>
		</g>
		<g>
			<path fill="none" stroke="#FFFFFF" stroke-width="0.25" stroke-miterlimit="10" d="M31.18,17.085
				c0-0.628-0.508-1.136-1.135-1.136"/>
			<path fill="none" stroke="#FFFFFF" stroke-width="0.25" stroke-miterlimit="10" d="M28.909,18.22
				c0-1.255,0.507-2.271,1.136-2.271"/>
			<path fill="none" stroke="#FFFFFF" stroke-width="0.25" stroke-miterlimit="10" d="M28.909,18.22
				c0,0.313,0.255,0.567,0.567,0.567"/>
			<path fill="none" stroke="#FFFFFF" stroke-width="0.25" stroke-miterlimit="10" d="M30.045,18.22
				c0,0.313-0.254,0.567-0.568,0.567"/>
			<path fill="none" stroke="#FFFFFF" stroke-width="0.25" stroke-miterlimit="10" d="M30.045,18.22
				c0-1.255-0.762-2.271-1.704-2.271"/>
		</g>
	</g>
	<line fill="none" stroke="#FFFFFF" stroke-width="0.25" stroke-miterlimit="10" x1="25.51" y1="17.084" x2="13.879" y2="17.085"/>
	<line fill="none" stroke="#FFFFFF" stroke-width="0.25" stroke-miterlimit="10" x1="42.812" y1="17.083" x2="31.18" y2="17.085"/>
</g>
<line fill="none" stroke="#FFFFFF" stroke-width="0.25" stroke-miterlimit="10" x1="42.808" y1="18.104" x2="42.808" y2="16.968"/>
</svg>
